<mxfile host="65bd71144e">
    <diagram id="TlA9alizGuWaNClmzFCk" name="Page-1">
        <mxGraphModel dx="913" dy="379" grid="1" gridSize="10" guides="1" tooltips="1" connect="1" arrows="1" fold="1" page="1" pageScale="1" pageWidth="850" pageHeight="1100" math="0" shadow="0">
            <root>
                <mxCell id="0"/>
                <mxCell id="1" parent="0"/>
                <mxCell id="2" value="user&lt;br&gt;" style="whiteSpace=wrap;html=1;" parent="1" vertex="1">
                    <mxGeometry x="160" y="400" width="99.64285714285715" height="92.45283018867924" as="geometry"/>
                </mxCell>
                <mxCell id="5" value="" style="endArrow=classic;html=1;shape=link;width=16;startArrow=none;" parent="1" source="19" edge="1">
                    <mxGeometry width="50" height="50" relative="1" as="geometry">
                        <mxPoint x="209.82142857142858" y="631.132075471698" as="sourcePoint"/>
                        <mxPoint x="209.82142857142858" y="492.45283018867923" as="targetPoint"/>
                    </mxGeometry>
                </mxCell>
                <mxCell id="7" value="" style="shape=datastore;whiteSpace=wrap;html=1;" parent="1" vertex="1">
                    <mxGeometry x="398.03571428571433" y="637.7358490566038" width="71.96428571428572" height="112.26415094339623" as="geometry"/>
                </mxCell>
                <mxCell id="8" value="" style="shape=actor;whiteSpace=wrap;html=1;" parent="1" vertex="1">
                    <mxGeometry x="182.14285714285714" y="416.50943396226415" width="55.35714285714286" height="59.43396226415095" as="geometry"/>
                </mxCell>
                <mxCell id="9" value="view" style="shape=ext;double=1;whiteSpace=wrap;html=1;aspect=fixed;" parent="1" vertex="1">
                    <mxGeometry x="378.65999999999997" y="426.42" width="71.34" height="71.34" as="geometry"/>
                </mxCell>
                <mxCell id="10" value="server" style="shape=ext;double=1;whiteSpace=wrap;html=1;aspect=fixed;" parent="1" vertex="1">
                    <mxGeometry x="165.53571428571428" y="631.132075471698" width="94.10714285714286" height="94.10714285714286" as="geometry"/>
                </mxCell>
                <mxCell id="12" value="" style="edgeStyle=segmentEdgeStyle;endArrow=classic;html=1;shape=link;exitX=1;exitY=0.5;exitDx=0;exitDy=0;" parent="1" source="10" edge="1">
                    <mxGeometry width="50" height="50" relative="1" as="geometry">
                        <mxPoint x="359.28571428571433" y="617.9245283018868" as="sourcePoint"/>
                        <mxPoint x="425.7142857142857" y="631.132075471698" as="targetPoint"/>
                        <Array as="points">
                            <mxPoint x="342.67857142857144" y="687.2641509433963"/>
                            <mxPoint x="342.67857142857144" y="611.3207547169811"/>
                            <mxPoint x="425.7142857142857" y="611.3207547169811"/>
                        </Array>
                    </mxGeometry>
                </mxCell>
                <mxCell id="13" value="" style="edgeStyle=segmentEdgeStyle;endArrow=classic;html=1;shape=link;entryX=0.645;entryY=-0.016;entryDx=0;entryDy=0;entryPerimeter=0;startArrow=none;" parent="1" target="7" edge="1">
                    <mxGeometry width="50" height="50" relative="1" as="geometry">
                        <mxPoint x="315" y="657.5471698113208" as="sourcePoint"/>
                        <mxPoint x="409.1071428571429" y="551.8867924528302" as="targetPoint"/>
                        <Array as="points">
                            <mxPoint x="315" y="591.5094339622642"/>
                            <mxPoint x="444.53571428571433" y="591.5094339622642"/>
                        </Array>
                    </mxGeometry>
                </mxCell>
                <mxCell id="15" value="" style="shape=singleArrow;direction=south;whiteSpace=wrap;html=1;rotation=90;" parent="1" vertex="1">
                    <mxGeometry x="301.1607142857143" y="674.0566037735849" width="11.071428571428573" height="26.41509433962264" as="geometry"/>
                </mxCell>
                <mxCell id="14" value="" style="shape=singleArrow;direction=south;whiteSpace=wrap;html=1;rotation=90;" parent="1" vertex="1">
                    <mxGeometry x="276.25" y="647.6415094339623" width="11.071428571428573" height="26.41509433962264" as="geometry"/>
                </mxCell>
                <mxCell id="18" value="" style="edgeStyle=segmentEdgeStyle;endArrow=none;html=1;shape=link;exitX=1;exitY=0.25;exitDx=0;exitDy=0;" parent="1" source="10" edge="1">
                    <mxGeometry width="50" height="50" relative="1" as="geometry">
                        <mxPoint x="259.64285714285717" y="659.1981132075472" as="sourcePoint"/>
                        <mxPoint x="315" y="657.5471698113208" as="targetPoint"/>
                        <Array as="points">
                            <mxPoint x="315" y="659.5283018867924"/>
                        </Array>
                    </mxGeometry>
                </mxCell>
                <mxCell id="19" value="" style="shape=singleArrow;direction=east;whiteSpace=wrap;html=1;rotation=90;" parent="1" vertex="1">
                    <mxGeometry x="198.75" y="505.66037735849056" width="22.142857142857146" height="13.20754716981132" as="geometry"/>
                </mxCell>
                <mxCell id="20" value="" style="endArrow=none;html=1;shape=link;width=16;" parent="1" target="19" edge="1">
                    <mxGeometry width="50" height="50" relative="1" as="geometry">
                        <mxPoint x="209.82142857142858" y="631.132075471698" as="sourcePoint"/>
                        <mxPoint x="209.82142857142858" y="492.45283018867923" as="targetPoint"/>
                    </mxGeometry>
                </mxCell>
                <mxCell id="23" value="" style="edgeStyle=segmentEdgeStyle;endArrow=classic;html=1;shape=link;width=6;" parent="1" edge="1">
                    <mxGeometry width="50" height="50" relative="1" as="geometry">
                        <mxPoint x="243.58928571428572" y="631.132075471698" as="sourcePoint"/>
                        <mxPoint x="315" y="545" as="targetPoint"/>
                        <Array as="points">
                            <mxPoint x="243.58928571428572" y="604.7169811320755"/>
                            <mxPoint x="298.39285714285717" y="604.7169811320755"/>
                            <mxPoint x="298.39285714285717" y="545.2830188679245"/>
                        </Array>
                    </mxGeometry>
                </mxCell>
                <mxCell id="24" value="" style="edgeStyle=segmentEdgeStyle;endArrow=classic;html=1;shape=link;width=6;entryX=0.589;entryY=1.01;entryDx=0;entryDy=0;entryPerimeter=0;" parent="1" target="9" edge="1">
                    <mxGeometry width="50" height="50" relative="1" as="geometry">
                        <mxPoint x="310" y="545" as="sourcePoint"/>
                        <mxPoint x="442.32142857142856" y="545.2830188679245" as="targetPoint"/>
                        <Array as="points">
                            <mxPoint x="421" y="545"/>
                        </Array>
                    </mxGeometry>
                </mxCell>
            </root>
        </mxGraphModel>
    </diagram>
</mxfile>